<?xml version="1.0" standalone="no"?>
<!DOCTYPE svg PUBLIC "-//W3C//DTD SVG 20010904//EN"
 "http://www.w3.org/TR/2001/REC-SVG-20010904/DTD/svg10.dtd">
<svg version="1.0" xmlns="http://www.w3.org/2000/svg"
 width="256.000000pt" height="251.000000pt" viewBox="0 0 256.000000 251.000000"
 preserveAspectRatio="xMidYMid meet">

<g transform="translate(0.000000,251.000000) scale(0.100000,-0.100000)"
fill="#000000" stroke="none">
<path d="M0 1255 l0 -1255 1280 0 1280 0 0 1255 0 1255 -1280 0 -1280 0 0
-1255z m1304 1087 c3 -5 -1 -9 -9 -9 -8 0 -12 4 -9 9 3 4 7 8 9 8 2 0 6 -4 9
-8z m256 -77 c41 -28 188 -127 325 -220 138 -92 271 -184 298 -202 l47 -35
-25 -41 c-14 -23 -59 -104 -102 -179 -42 -76 -79 -138 -82 -138 -6 0 -164 239
-190 288 -8 15 -19 32 -25 38 -6 7 -29 42 -51 79 -22 36 -76 121 -120 188
-103 158 -175 273 -175 281 0 9 8 4 100 -59z m-259 6 c-12 -14 -20 -15 -30 -7
-11 8 -13 8 -7 -1 4 -8 2 -13 -8 -13 -8 0 -17 -6 -19 -12 -3 -7 -6 -8 -6 -3
-1 6 8 25 19 42 18 29 22 32 44 22 22 -10 23 -12 7 -28z m-153 -9 c-1 -4 -48
-83 -103 -175 l-99 -167 -86 0 c-47 0 -150 -3 -230 -6 -119 -5 -143 -4 -133 6
14 15 633 350 646 350 5 0 7 -4 5 -8z m92 -123 c0 -37 -1 -39 -33 -39 -45 0
-55 -14 -49 -66 3 -26 1 -44 -6 -44 -5 0 -13 -7 -16 -16 -4 -12 -2 -15 9 -10
12 4 15 -3 15 -36 0 -35 -2 -39 -15 -28 -12 10 -15 10 -15 -4 0 -20 -14 -21
-34 0 -9 8 -16 11 -16 5 0 -6 -6 -8 -14 -5 -15 6 -13 20 7 61 8 18 13 20 24
11 16 -13 18 -11 27 22 6 18 5 21 -3 10 -5 -8 -13 -12 -16 -9 -7 8 16 59 27
59 4 0 8 9 8 20 0 11 5 20 11 20 5 0 7 5 4 10 -3 6 1 10 10 10 9 0 19 9 22 20
3 11 10 20 15 20 5 0 6 5 3 10 -4 6 -4 18 -1 27 11 28 36 -6 36 -48z m193 -9
c-3 -3 -8 1 -10 8 -3 6 -9 10 -14 6 -5 -3 -9 5 -9 18 l0 23 20 -25 c10 -14 16
-27 13 -30z m10 -93 c-4 -18 -12 -27 -24 -27 -15 0 -19 7 -19 39 0 23 5 41 13
44 19 6 36 -25 30 -56z m33 -3 c-17 -17 -19 -12 -9 25 5 20 7 21 15 7 6 -11 4
-21 -6 -32z m17 -27 c-4 -8 -1 -7 9 1 14 11 18 10 29 -10 11 -20 10 -22 -3
-10 -13 10 -17 10 -21 -3 -4 -8 -3 -14 1 -14 30 5 52 -3 52 -19 0 -10 6 -24
13 -31 10 -10 6 -11 -18 -5 -16 4 -33 12 -36 17 -4 5 -17 7 -28 4 -20 -5 -22
-2 -17 36 2 23 5 46 5 50 1 5 6 5 11 2 6 -4 7 -12 3 -18z m90 -153 c12 2 21
10 19 17 -3 12 -1 12 10 0 10 -11 10 -14 1 -18 -8 -3 -13 -22 -13 -44 0 -35
-3 -39 -25 -39 -24 0 -25 2 -24 63 1 34 4 52 6 40 3 -17 10 -22 26 -19z m-403
-3 c0 -5 -9 -7 -20 -4 -11 3 -20 7 -20 9 0 2 9 4 20 4 11 0 20 -4 20 -9z
m-300 -18 c0 -10 -49 -151 -165 -476 l-89 -248 -33 88 c-103 269 -127 330
-176 458 -30 77 -53 143 -51 146 3 6 52 10 289 25 55 4 102 8 104 10 8 7 121
4 121 -3z m340 -3 c0 -5 -2 -10 -4 -10 -3 0 -8 5 -11 10 -3 6 -1 10 4 10 6 0
11 -4 11 -10z m453 -49 c24 -36 33 -81 16 -81 -4 0 -14 -3 -22 -6 -19 -7 -31
24 -16 42 9 11 8 14 -2 14 -9 1 -8 5 5 15 18 13 15 20 -6 16 -5 0 -8 8 -8 19
0 28 4 26 33 -19z m-268 -8 c-11 -3 -24 -10 -30 -15 -7 -8 -5 -9 8 -5 9 4 17
2 17 -3 0 -15 -16 -12 -57 10 l-38 20 60 -1 c33 -1 51 -3 40 -6z m76 -13 c4
-8 2 -20 -3 -27 -6 -8 -3 -18 11 -32 26 -26 16 -27 -25 -2 -30 18 -37 42 -21
69 10 15 30 11 38 -8z m70 -84 c5 3 9 0 9 -5 0 -6 -7 -11 -15 -11 -8 0 -15 8
-14 18 0 10 3 12 6 4 2 -6 9 -10 14 -6z m86 -15 c2 -26 0 -28 -25 -23 -21 5
-23 7 -8 10 15 3 16 6 5 13 -12 8 -12 11 1 19 22 14 25 13 27 -19z m113 5 c0
-11 -19 -15 -25 -6 -3 5 1 10 9 10 9 0 16 -2 16 -4z m526 -393 c-4 -224 -11
-382 -16 -387 -7 -7 -15 -5 -24 4 -15 16 -156 379 -163 420 -7 36 164 339 191
340 19 0 19 -10 12 -377z m-600 332 c10 -8 15 -14 9 -14 -5 0 -19 6 -29 14
-11 8 -15 15 -10 15 6 0 19 -7 30 -15z m91 -28 c-6 -18 -27 -20 -27 -3 0 9 -5
16 -11 16 -5 0 -7 -5 -3 -12 4 -7 3 -8 -5 -4 -9 6 -9 11 0 22 13 16 53 0 46
-19z m33 -1 c0 -5 -7 -3 -15 4 -8 7 -12 17 -9 22 7 10 24 -9 24 -26z m-1339
-299 c65 -164 116 -303 113 -310 -12 -26 -249 -234 -261 -230 -10 4 -13 89
-13 412 0 406 3 438 33 428 5 -1 63 -137 128 -300z m1334 265 c-3 -3 -11 0
-18 7 -9 10 -8 11 6 5 10 -3 15 -9 12 -12z m45 -9 c0 -20 -24 -11 -28 10 -2
12 1 15 12 11 9 -3 16 -13 16 -21z m95 -253 c7 -11 -1 -29 -55 -125 -33 -59
-327 -580 -443 -785 -33 -58 -75 -133 -94 -168 -23 -41 -41 -62 -51 -60 -17 3
-581 746 -582 766 0 7 6 14 13 16 163 50 692 215 1042 326 128 40 160 46 170
30z m148 -237 c-4 -11 -3 -14 5 -9 7 4 12 2 12 -3 0 -6 -4 -11 -10 -11 -5 0
-10 -13 -10 -29 0 -27 -15 -49 -26 -38 -2 2 -4 22 -4 43 0 21 0 49 0 62 0 12
5 22 10 22 5 0 7 7 4 15 -7 18 -63 47 -76 39 -5 -3 -4 3 3 14 7 11 19 18 26
15 7 -3 13 1 13 8 1 8 14 -14 30 -49 16 -34 26 -70 23 -79z m-123 11 c0 -8 -4
-12 -10 -9 -5 3 -10 10 -10 16 0 5 5 9 10 9 6 0 10 -7 10 -16z m-33 -51 c1
-22 -1 -24 -8 -10 -6 9 -7 22 -4 27 9 14 10 13 12 -17z m192 -35 c1 -5 -6 -8
-15 -8 -11 0 -14 5 -10 16 3 9 6 21 7 27 0 12 17 -20 18 -35z m-234 -28 c-1
-11 -4 -23 -8 -26 -4 -4 -2 -13 4 -21 9 -10 7 -13 -10 -13 -25 0 -27 21 -5 55
20 30 21 30 19 5z m264 -65 c1 6 6 3 11 -5 13 -20 12 -30 -1 -30 -5 0 -7 6 -3
13 6 9 4 9 -8 -1 -13 -11 -16 -9 -20 13 -6 30 4 43 13 18 4 -10 8 -13 8 -8z
m-309 -31 c0 -8 9 -14 20 -14 11 0 20 -7 20 -15 0 -9 -6 -12 -15 -9 -8 4 -15
1 -15 -5 0 -7 -6 -11 -14 -9 -7 2 -22 -7 -32 -19 -25 -30 -52 -17 -28 13 14
18 15 18 9 -6 -6 -24 -5 -24 10 -6 9 12 11 24 6 29 -12 12 -2 37 15 37 8 0 11
6 7 17 -4 11 -3 14 5 9 7 -4 12 -14 12 -22z m341 -76 c36 -38 32 -54 -13 -56
-34 -1 -35 -1 -36 43 -2 54 9 57 49 13z m13 16 c3 -8 2 -12 -4 -9 -6 3 -10 10
-10 16 0 14 7 11 14 -7z m-424 -64 c0 -5 -5 -10 -11 -10 -5 0 -7 5 -4 10 3 6
8 10 11 10 2 0 4 -4 4 -10z m-50 -65 c-6 -15 -6 -26 0 -30 17 -11 11 -45 -7
-46 -17 -1 -17 -2 0 -6 29 -8 19 -19 -19 -21 -20 -2 -40 -4 -44 -5 -8 -2 -10
3 -10 22 0 5 14 24 31 41 17 17 29 34 25 37 -3 3 2 12 12 19 23 18 23 18 12
-11z m500 10 c0 -8 -4 -15 -10 -15 -5 0 -7 7 -4 15 4 8 8 15 10 15 2 0 4 -7 4
-15z m-150 -37 c0 6 8 12 18 12 14 0 15 -2 2 -10 -8 -5 -10 -10 -5 -10 6 0 2
-5 -9 -11 -14 -9 -20 -8 -27 2 -4 7 -5 17 -2 22 3 5 9 3 14 -4 6 -10 9 -11 9
-1z m120 7 c0 -2 -14 -12 -30 -20 -30 -16 -30 -15 -18 5 11 17 48 29 48 15z
m-85 -45 c-4 -6 -10 -8 -15 -5 -4 3 -10 0 -12 -7 -3 -7 -9 -8 -18 -3 -11 7
-10 10 6 16 28 11 46 11 39 -1z m-105 -40 c0 -5 -4 -10 -10 -10 -5 0 -10 5
-10 10 0 6 5 10 10 10 6 0 10 -4 10 -10z m-77 -7 c-7 -2 -19 -2 -25 0 -7 3 -2
5 12 5 14 0 19 -2 13 -5z m-280 -29 c-3 -8 -8 -14 -12 -15 -3 0 -14 -2 -23 -4
-16 -3 -16 -1 -2 20 16 25 47 24 37 -1z m287 -14 c-8 -6 -24 -16 -35 -22 -20
-11 -20 -11 -1 11 11 11 26 21 35 21 14 0 14 -2 1 -10z m-354 -48 c-17 -16
-18 -16 -5 5 7 12 15 20 18 17 3 -2 -3 -12 -13 -22z m255 11 c-16 -3 -20 -7
-12 -13 10 -5 9 -9 -3 -13 -10 -4 -16 -1 -16 7 0 19 10 26 34 25 18 -2 17 -2
-3 -6z m-280 -56 c-10 -9 -11 -8 -5 6 3 10 9 15 12 12 3 -3 0 -11 -7 -18z
m219 13 c-36 -25 -50 -31 -50 -20 0 5 7 10 15 10 8 0 15 5 15 10 0 6 8 10 18
10 15 0 15 -2 2 -10z m-60 -34 c0 -2 -13 -9 -29 -14 -25 -9 -29 -8 -24 4 4 12
53 21 53 10z m-136 -51 c11 -8 15 -15 10 -15 -6 0 -15 5 -22 12 -9 9 -12 7
-12 -9 0 -20 -31 -41 -52 -35 -5 1 -8 -4 -8 -11 0 -6 -5 -4 -11 6 -6 10 -8 21
-5 24 3 4 6 1 6 -6 0 -9 5 -9 23 1 12 7 25 11 28 10 4 -1 5 8 2 18 -6 24 13
26 41 5z m-59 -5 c-3 -5 -12 -10 -18 -10 -7 0 -6 4 3 10 19 12 23 12 15 0z
m-55 -66 c0 -8 -5 -12 -10 -9 -6 4 -8 11 -5 16 9 14 15 11 15 -7z"/>
<path d="M1454 1745 c-9 -21 -2 -26 13 -10 8 9 9 16 3 20 -6 3 -13 -1 -16 -10z"/>
<path d="M2061 984 c0 -11 3 -14 6 -6 3 7 2 16 -1 19 -3 4 -6 -2 -5 -13z"/>
</g>
</svg>
